<svg width="56" height="56" viewBox="0 0 56 56" fill="none" xmlns="http://www.w3.org/2000/svg">
<rect width="56" height="56" rx="13.7083" fill="#373944"/>
<path d="M35.7203 17.5473V11.6543H31.3242V17.5473L33.5222 16.6264L35.7203 17.5473Z" fill="#F68C2D"/>
<path opacity="0.3" d="M40.5998 44.3848H18.3443C16.7832 44.3848 15.5176 43.1192 15.5176 41.5578C15.5176 39.9966 16.7832 38.731 18.3443 38.731H40.5998V44.3848Z" fill="white"/>
<path d="M20.1552 36.8131H18.3446C17.2694 36.8131 16.2772 37.1727 15.4805 37.7773V15.2998C15.4805 13.3264 17.086 11.7209 19.0594 11.7209H20.1552V36.8131Z" fill="#F68C2D"/>
<path d="M40.5595 11.6543H37.6403V20.4343L33.5215 18.7087L29.4025 20.4343V11.6543H22.0723V36.7465H40.5966V11.6543H40.5595ZM35.5385 32.8319H27.2796V30.9111H35.5385V32.8319ZM35.5385 28.7772H27.2796V26.8564H35.5385V28.7772Z" fill="#F68C2D"/>
</svg>
