<svg width="163" height="46" viewBox="0 0 163 46" fill="none" xmlns="http://www.w3.org/2000/svg">
<path d="M32.4928 0.939999C32.9928 0.939999 33.4228 1.11 33.7828 1.45C34.1628 1.79 34.3528 2.2 34.3528 2.68C34.3528 2.94 34.2928 3.21 34.1728 3.49L26.7628 20.83C26.5828 21.21 26.3328 21.5 26.0128 21.7C25.6928 21.9 25.3528 22 24.9928 22C24.6528 21.98 24.3328 21.88 24.0328 21.7C23.7528 21.5 23.5328 21.22 23.3728 20.86L15.9628 3.46C15.8628 3.26 15.8128 3.01 15.8128 2.71C15.8128 2.17 16.0128 1.74 16.4128 1.42C16.8128 1.08 17.2228 0.91 17.6428 0.91C17.9828 0.91 18.3028 1.01 18.6028 1.21C18.9028 1.41 19.1328 1.7 19.2928 2.08L25.3228 16.27L30.8428 2.08C31.0028 1.72 31.2328 1.44 31.5328 1.24C31.8328 1.04 32.1528 0.939999 32.4928 0.939999ZM52.3317 13.99C52.3317 15.59 51.9717 17.03 51.2517 18.31C50.5317 19.57 49.5417 20.55 48.2817 21.25C47.0417 21.95 45.6717 22.3 44.1717 22.3C42.6517 22.3 41.2717 21.95 40.0317 21.25C38.7917 20.55 37.8117 19.57 37.0917 18.31C36.3717 17.03 36.0117 15.59 36.0117 13.99C36.0117 12.39 36.3717 10.96 37.0917 9.7C37.8117 8.42 38.7917 7.43 40.0317 6.73C41.2717 6.01 42.6517 5.65 44.1717 5.65C45.6717 5.65 47.0417 6.01 48.2817 6.73C49.5417 7.43 50.5317 8.42 51.2517 9.7C51.9717 10.96 52.3317 12.39 52.3317 13.99ZM48.7317 13.99C48.7317 13.01 48.5217 12.14 48.1017 11.38C47.7017 10.6 47.1517 10 46.4517 9.58C45.7717 9.16 45.0117 8.95 44.1717 8.95C43.3317 8.95 42.5617 9.16 41.8617 9.58C41.1817 10 40.6317 10.6 40.2117 11.38C39.8117 12.14 39.6117 13.01 39.6117 13.99C39.6117 14.97 39.8117 15.84 40.2117 16.6C40.6317 17.36 41.1817 17.95 41.8617 18.37C42.5617 18.79 43.3317 19 44.1717 19C45.0117 19 45.7717 18.79 46.4517 18.37C47.1517 17.95 47.7017 17.36 48.1017 16.6C48.5217 15.84 48.7317 14.97 48.7317 13.99ZM59.1494 20.17C59.1494 20.69 58.9794 21.13 58.6394 21.49C58.2994 21.83 57.8694 22 57.3494 22C56.8294 22 56.3994 21.83 56.0594 21.49C55.7194 21.13 55.5494 20.69 55.5494 20.17V7.78C55.5494 7.26 55.7194 6.83 56.0594 6.49C56.3994 6.13 56.8294 5.95 57.3494 5.95C57.8694 5.95 58.2994 6.13 58.6394 6.49C58.9794 6.83 59.1494 7.26 59.1494 7.78V20.17ZM57.3194 4C56.6394 4 56.1594 3.89 55.8794 3.67C55.5994 3.45 55.4594 3.06 55.4594 2.5V1.93C55.4594 1.37 55.6094 0.979999 55.9094 0.76C56.2094 0.539999 56.6894 0.429999 57.3494 0.429999C58.0494 0.429999 58.5394 0.539999 58.8194 0.76C59.0994 0.979999 59.2394 1.37 59.2394 1.93V2.5C59.2394 3.08 59.0894 3.48 58.7894 3.7C58.5094 3.9 58.0194 4 57.3194 4ZM73.4993 18.7C73.9793 18.7 74.3793 18.86 74.6993 19.18C75.0193 19.48 75.1793 19.87 75.1793 20.35C75.1793 20.81 75.0193 21.2 74.6993 21.52C74.3793 21.84 73.9793 22 73.4993 22H63.8393C63.3793 22 62.9893 21.84 62.6693 21.52C62.3693 21.18 62.2193 20.82 62.2193 20.44C62.2193 20.1 62.2593 19.82 62.3393 19.6C62.4193 19.36 62.5693 19.09 62.7893 18.79L69.9293 9.55H64.1093C63.6293 9.55 63.2293 9.39 62.9093 9.07C62.5893 8.75 62.4293 8.35 62.4293 7.87C62.4293 7.41 62.5893 7.03 62.9093 6.73C63.2293 6.41 63.6293 6.25 64.1093 6.25H73.3493C73.7893 6.25 74.1593 6.41 74.4593 6.73C74.7793 7.03 74.9393 7.41 74.9393 7.87C74.9393 8.17 74.9093 8.43 74.8493 8.65C74.7893 8.85 74.6493 9.09 74.4293 9.37L67.2293 18.7H73.4993ZM88.4287 14.59C87.9087 14.59 87.4687 14.42 87.1087 14.08C86.7687 13.74 86.5987 13.31 86.5987 12.79C86.5987 12.29 86.7687 11.87 87.1087 11.53C87.4687 11.19 87.9087 11.02 88.4287 11.02H93.6487C94.1687 11.02 94.5987 11.2 94.9387 11.56C95.2987 11.9 95.4787 12.33 95.4787 12.85C95.4787 13.35 95.2987 13.77 94.9387 14.11C94.5987 14.43 94.1687 14.59 93.6487 14.59H88.4287ZM112.241 4.45V9.73H118.721C119.241 9.73 119.671 9.9 120.011 10.24C120.371 10.56 120.551 10.98 120.551 11.5C120.551 11.94 120.371 12.33 120.011 12.67C119.671 13.01 119.241 13.18 118.721 13.18H112.241V20.17C112.241 20.69 112.051 21.13 111.671 21.49C111.311 21.83 110.881 22 110.381 22C109.821 22 109.361 21.83 109.001 21.49C108.661 21.15 108.491 20.71 108.491 20.17V2.83C108.491 2.31 108.661 1.88 109.001 1.54C109.361 1.18 109.801 0.999999 110.321 0.999999H120.071C120.591 0.999999 121.021 1.17 121.361 1.51C121.721 1.83 121.901 2.25 121.901 2.77C121.901 3.21 121.721 3.6 121.361 3.94C121.021 4.28 120.591 4.45 120.071 4.45H112.241ZM143.967 0.969999C144.467 0.969999 144.897 1.15 145.257 1.51C145.637 1.85 145.827 2.28 145.827 2.8V20.17C145.827 20.69 145.657 21.13 145.317 21.49C144.977 21.83 144.527 22 143.967 22C143.407 22 142.947 21.83 142.587 21.49C142.247 21.15 142.077 20.71 142.077 20.17V8.08L137.127 15.64C136.927 15.88 136.697 16.08 136.437 16.24C136.177 16.38 135.907 16.44 135.627 16.42C135.367 16.44 135.107 16.38 134.847 16.24C134.587 16.08 134.357 15.88 134.157 15.64L129.207 7.81V20.17C129.207 20.71 129.047 21.15 128.727 21.49C128.407 21.83 127.987 22 127.467 22C126.967 22 126.557 21.83 126.237 21.49C125.917 21.13 125.757 20.69 125.757 20.17V2.8C125.757 2.3 125.937 1.87 126.297 1.51C126.677 1.15 127.127 0.969999 127.647 0.969999C127.947 0.969999 128.247 1.05 128.547 1.21C128.847 1.35 129.077 1.54 129.237 1.78L135.777 11.83L142.497 1.78C142.657 1.54 142.867 1.35 143.127 1.21C143.407 1.05 143.687 0.969999 143.967 0.969999ZM7.37206 35.874C7.58873 35.874 7.77506 35.9477 7.93106 36.095C8.09573 36.2423 8.17806 36.42 8.17806 36.628C8.17806 36.7407 8.15206 36.8577 8.10006 36.979L4.88906 44.493C4.81106 44.6577 4.70273 44.7833 4.56406 44.87C4.42539 44.9567 4.27806 45 4.12206 45C3.97473 44.9913 3.83606 44.948 3.70606 44.87C3.58473 44.7833 3.48939 44.662 3.42006 44.506L0.209059 36.966C0.165726 36.8793 0.144059 36.771 0.144059 36.641C0.144059 36.407 0.230726 36.2207 0.404059 36.082C0.577392 35.9347 0.755059 35.861 0.937059 35.861C1.08439 35.861 1.22306 35.9043 1.35306 35.991C1.48306 36.0777 1.58273 36.2033 1.65206 36.368L4.26506 42.517L6.65706 36.368C6.72639 36.212 6.82606 36.0907 6.95606 36.004C7.08606 35.9173 7.22473 35.874 7.37206 35.874ZM16.2069 41.529C16.2069 42.2223 16.0509 42.8463 15.7389 43.401C15.4269 43.947 14.9979 44.3717 14.4519 44.675C13.9146 44.9783 13.3209 45.13 12.6709 45.13C12.0122 45.13 11.4142 44.9783 10.8769 44.675C10.3396 44.3717 9.91492 43.947 9.60292 43.401C9.29092 42.8463 9.13492 42.2223 9.13492 41.529C9.13492 40.8357 9.29092 40.216 9.60292 39.67C9.91492 39.1153 10.3396 38.6863 10.8769 38.383C11.4142 38.071 12.0122 37.915 12.6709 37.915C13.3209 37.915 13.9146 38.071 14.4519 38.383C14.9979 38.6863 15.4269 39.1153 15.7389 39.67C16.0509 40.216 16.2069 40.8357 16.2069 41.529ZM14.6469 41.529C14.6469 41.1043 14.5559 40.7273 14.3739 40.398C14.2006 40.06 13.9622 39.8 13.6589 39.618C13.3642 39.436 13.0349 39.345 12.6709 39.345C12.3069 39.345 11.9732 39.436 11.6699 39.618C11.3752 39.8 11.1369 40.06 10.9549 40.398C10.7816 40.7273 10.6949 41.1043 10.6949 41.529C10.6949 41.9537 10.7816 42.3307 10.9549 42.66C11.1369 42.9893 11.3752 43.245 11.6699 43.427C11.9732 43.609 12.3069 43.7 12.6709 43.7C13.0349 43.7 13.3642 43.609 13.6589 43.427C13.9622 43.245 14.2006 42.9893 14.3739 42.66C14.5559 42.3307 14.6469 41.9537 14.6469 41.529ZM19.3993 44.207C19.3993 44.4323 19.3256 44.623 19.1783 44.779C19.0309 44.9263 18.8446 45 18.6193 45C18.3939 45 18.2076 44.9263 18.0603 44.779C17.9129 44.623 17.8393 44.4323 17.8393 44.207V38.838C17.8393 38.6127 17.9129 38.4263 18.0603 38.279C18.2076 38.123 18.3939 38.045 18.6193 38.045C18.8446 38.045 19.0309 38.123 19.1783 38.279C19.3256 38.4263 19.3993 38.6127 19.3993 38.838V44.207ZM18.6063 37.2C18.3116 37.2 18.1036 37.1523 17.9823 37.057C17.8609 36.9617 17.8003 36.7927 17.8003 36.55V36.303C17.8003 36.0603 17.8653 35.8913 17.9953 35.796C18.1253 35.7007 18.3333 35.653 18.6193 35.653C18.9226 35.653 19.1349 35.7007 19.2563 35.796C19.3776 35.8913 19.4383 36.0603 19.4383 36.303V36.55C19.4383 36.8013 19.3733 36.9747 19.2433 37.07C19.1219 37.1567 18.9096 37.2 18.6063 37.2ZM24.4515 37.915C25.1882 37.915 25.7819 38.032 26.2325 38.266C26.6832 38.4913 26.9085 38.7947 26.9085 39.176C26.9085 39.3667 26.8522 39.5357 26.7395 39.683C26.6269 39.8217 26.4795 39.891 26.2975 39.891C26.1589 39.891 26.0462 39.8737 25.9595 39.839C25.8729 39.7957 25.7862 39.7437 25.6995 39.683C25.6215 39.6137 25.5435 39.5573 25.4655 39.514C25.3789 39.4707 25.2489 39.4317 25.0755 39.397C24.9109 39.3623 24.7765 39.345 24.6725 39.345C24.0225 39.345 23.5112 39.5487 23.1385 39.956C22.7745 40.3547 22.5925 40.879 22.5925 41.529C22.5925 42.153 22.7789 42.673 23.1515 43.089C23.5242 43.4963 24.0009 43.7 24.5815 43.7C25.0062 43.7 25.3225 43.648 25.5305 43.544C25.5825 43.518 25.6519 43.4747 25.7385 43.414C25.8339 43.3447 25.9205 43.2927 25.9985 43.258C26.0765 43.2233 26.1719 43.206 26.2845 43.206C26.5012 43.206 26.6702 43.2753 26.7915 43.414C26.9215 43.5527 26.9865 43.7303 26.9865 43.947C26.9865 44.155 26.8652 44.35 26.6225 44.532C26.3799 44.714 26.0592 44.8613 25.6605 44.974C25.2619 45.078 24.8372 45.13 24.3865 45.13C23.7192 45.13 23.1299 44.974 22.6185 44.662C22.1159 44.35 21.7259 43.921 21.4485 43.375C21.1712 42.8203 21.0325 42.205 21.0325 41.529C21.0325 40.827 21.1755 40.203 21.4615 39.657C21.7562 39.111 22.1635 38.6863 22.6835 38.383C23.2035 38.071 23.7929 37.915 24.4515 37.915ZM34.773 41.36C34.7643 41.568 34.682 41.737 34.526 41.867C34.37 41.997 34.188 42.062 33.98 42.062H29.69C29.794 42.5733 30.0323 42.9763 30.405 43.271C30.7776 43.557 31.198 43.7 31.666 43.7C32.0213 43.7 32.2986 43.6697 32.498 43.609C32.6973 43.5397 32.8533 43.4703 32.966 43.401C33.0873 43.323 33.1696 43.271 33.213 43.245C33.369 43.167 33.5163 43.128 33.655 43.128C33.837 43.128 33.993 43.193 34.123 43.323C34.253 43.453 34.318 43.6047 34.318 43.778C34.318 44.012 34.1966 44.2243 33.954 44.415C33.7113 44.6143 33.3863 44.7833 32.979 44.922C32.5716 45.0607 32.16 45.13 31.744 45.13C31.016 45.13 30.379 44.9783 29.833 44.675C29.2956 44.3717 28.8796 43.9557 28.585 43.427C28.2903 42.8897 28.143 42.2873 28.143 41.62C28.143 40.8747 28.299 40.2203 28.611 39.657C28.923 39.0937 29.3346 38.6647 29.846 38.37C30.3573 38.0667 30.9033 37.915 31.484 37.915C32.056 37.915 32.5933 38.071 33.096 38.383C33.6073 38.695 34.0146 39.1153 34.318 39.644C34.6213 40.1727 34.773 40.7447 34.773 41.36ZM31.484 39.345C30.4786 39.345 29.885 39.8173 29.703 40.762H33.109V40.671C33.0743 40.307 32.8966 39.995 32.576 39.735C32.2553 39.475 31.8913 39.345 31.484 39.345ZM43.5865 37.915C44.3232 37.915 44.9169 38.032 45.3675 38.266C45.8182 38.4913 46.0435 38.7947 46.0435 39.176C46.0435 39.3667 45.9872 39.5357 45.8745 39.683C45.7619 39.8217 45.6145 39.891 45.4325 39.891C45.2939 39.891 45.1812 39.8737 45.0945 39.839C45.0079 39.7957 44.9212 39.7437 44.8345 39.683C44.7565 39.6137 44.6785 39.5573 44.6005 39.514C44.5139 39.4707 44.3839 39.4317 44.2105 39.397C44.0459 39.3623 43.9115 39.345 43.8075 39.345C43.1575 39.345 42.6462 39.5487 42.2735 39.956C41.9095 40.3547 41.7275 40.879 41.7275 41.529C41.7275 42.153 41.9139 42.673 42.2865 43.089C42.6592 43.4963 43.1359 43.7 43.7165 43.7C44.1412 43.7 44.4575 43.648 44.6655 43.544C44.7175 43.518 44.7869 43.4747 44.8735 43.414C44.9689 43.3447 45.0555 43.2927 45.1335 43.258C45.2115 43.2233 45.3069 43.206 45.4195 43.206C45.6362 43.206 45.8052 43.2753 45.9265 43.414C46.0565 43.5527 46.1215 43.7303 46.1215 43.947C46.1215 44.155 46.0002 44.35 45.7575 44.532C45.5149 44.714 45.1942 44.8613 44.7955 44.974C44.3969 45.078 43.9722 45.13 43.5215 45.13C42.8542 45.13 42.2649 44.974 41.7535 44.662C41.2509 44.35 40.8609 43.921 40.5835 43.375C40.3062 42.8203 40.1675 42.205 40.1675 41.529C40.1675 40.827 40.3105 40.203 40.5965 39.657C40.8912 39.111 41.2985 38.6863 41.8185 38.383C42.3385 38.071 42.9279 37.915 43.5865 37.915ZM54.35 41.529C54.35 42.2223 54.194 42.8463 53.882 43.401C53.57 43.947 53.141 44.3717 52.595 44.675C52.0576 44.9783 51.464 45.13 50.814 45.13C50.1553 45.13 49.5573 44.9783 49.02 44.675C48.4826 44.3717 48.058 43.947 47.746 43.401C47.434 42.8463 47.278 42.2223 47.278 41.529C47.278 40.8357 47.434 40.216 47.746 39.67C48.058 39.1153 48.4826 38.6863 49.02 38.383C49.5573 38.071 50.1553 37.915 50.814 37.915C51.464 37.915 52.0576 38.071 52.595 38.383C53.141 38.6863 53.57 39.1153 53.882 39.67C54.194 40.216 54.35 40.8357 54.35 41.529ZM52.79 41.529C52.79 41.1043 52.699 40.7273 52.517 40.398C52.3436 40.06 52.1053 39.8 51.802 39.618C51.5073 39.436 51.178 39.345 50.814 39.345C50.45 39.345 50.1163 39.436 49.813 39.618C49.5183 39.8 49.28 40.06 49.098 40.398C48.9246 40.7273 48.838 41.1043 48.838 41.529C48.838 41.9537 48.9246 42.3307 49.098 42.66C49.28 42.9893 49.5183 43.245 49.813 43.427C50.1163 43.609 50.45 43.7 50.814 43.7C51.178 43.7 51.5073 43.609 51.802 43.427C52.1053 43.245 52.3436 42.9893 52.517 42.66C52.699 42.3307 52.79 41.9537 52.79 41.529ZM59.7913 37.915C60.6753 37.915 61.2863 38.1793 61.6243 38.708C61.9623 39.228 62.1313 39.9517 62.1313 40.879V44.207C62.1313 44.4323 62.0577 44.623 61.9103 44.779C61.763 44.9263 61.5767 45 61.3513 45C61.126 45 60.9397 44.9263 60.7923 44.779C60.645 44.623 60.5713 44.4323 60.5713 44.207V40.879C60.5713 40.4023 60.4717 40.0297 60.2723 39.761C60.073 39.4837 59.7307 39.345 59.2453 39.345C58.7427 39.345 58.3483 39.4923 58.0623 39.787C57.7763 40.073 57.6333 40.437 57.6333 40.879V44.207C57.6333 44.4323 57.5597 44.623 57.4123 44.779C57.265 44.9263 57.0787 45 56.8533 45C56.628 45 56.4417 44.9263 56.2943 44.779C56.147 44.623 56.0733 44.4323 56.0733 44.207V38.838C56.0733 38.6127 56.147 38.4263 56.2943 38.279C56.4417 38.123 56.628 38.045 56.8533 38.045C57.0787 38.045 57.265 38.123 57.4123 38.279C57.5597 38.4263 57.6333 38.6127 57.6333 38.838V39.059C57.8673 38.747 58.1707 38.4783 58.5433 38.253C58.9247 38.0277 59.3407 37.915 59.7913 37.915ZM67.9555 37.915C68.8395 37.915 69.4505 38.1793 69.7885 38.708C70.1265 39.228 70.2955 39.9517 70.2955 40.879V44.207C70.2955 44.4323 70.2218 44.623 70.0745 44.779C69.9271 44.9263 69.7408 45 69.5155 45C69.2901 45 69.1038 44.9263 68.9565 44.779C68.8091 44.623 68.7355 44.4323 68.7355 44.207V40.879C68.7355 40.4023 68.6358 40.0297 68.4365 39.761C68.2371 39.4837 67.8948 39.345 67.4095 39.345C66.9068 39.345 66.5125 39.4923 66.2265 39.787C65.9405 40.073 65.7975 40.437 65.7975 40.879V44.207C65.7975 44.4323 65.7238 44.623 65.5765 44.779C65.4291 44.9263 65.2428 45 65.0175 45C64.7921 45 64.6058 44.9263 64.4585 44.779C64.3111 44.623 64.2375 44.4323 64.2375 44.207V38.838C64.2375 38.6127 64.3111 38.4263 64.4585 38.279C64.6058 38.123 64.7921 38.045 65.0175 38.045C65.2428 38.045 65.4291 38.123 65.5765 38.279C65.7238 38.4263 65.7975 38.6127 65.7975 38.838V39.059C66.0315 38.747 66.3348 38.4783 66.7075 38.253C67.0888 38.0277 67.5048 37.915 67.9555 37.915ZM78.6416 41.36C78.6329 41.568 78.5506 41.737 78.3946 41.867C78.2386 41.997 78.0566 42.062 77.8486 42.062H73.5586C73.6626 42.5733 73.9009 42.9763 74.2736 43.271C74.6463 43.557 75.0666 43.7 75.5346 43.7C75.8899 43.7 76.1673 43.6697 76.3666 43.609C76.5659 43.5397 76.7219 43.4703 76.8346 43.401C76.9559 43.323 77.0383 43.271 77.0816 43.245C77.2376 43.167 77.3849 43.128 77.5236 43.128C77.7056 43.128 77.8616 43.193 77.9916 43.323C78.1216 43.453 78.1866 43.6047 78.1866 43.778C78.1866 44.012 78.0653 44.2243 77.8226 44.415C77.5799 44.6143 77.2549 44.7833 76.8476 44.922C76.4403 45.0607 76.0286 45.13 75.6126 45.13C74.8846 45.13 74.2476 44.9783 73.7016 44.675C73.1643 44.3717 72.7483 43.9557 72.4536 43.427C72.1589 42.8897 72.0116 42.2873 72.0116 41.62C72.0116 40.8747 72.1676 40.2203 72.4796 39.657C72.7916 39.0937 73.2033 38.6647 73.7146 38.37C74.2259 38.0667 74.7719 37.915 75.3526 37.915C75.9246 37.915 76.4619 38.071 76.9646 38.383C77.4759 38.695 77.8833 39.1153 78.1866 39.644C78.4899 40.1727 78.6416 40.7447 78.6416 41.36ZM75.3526 39.345C74.3473 39.345 73.7536 39.8173 73.5716 40.762H76.9776V40.671C76.9429 40.307 76.7653 39.995 76.4446 39.735C76.1239 39.475 75.7599 39.345 75.3526 39.345ZM83.3916 37.915C84.1283 37.915 84.7219 38.032 85.1726 38.266C85.6233 38.4913 85.8486 38.7947 85.8486 39.176C85.8486 39.3667 85.7923 39.5357 85.6796 39.683C85.5669 39.8217 85.4196 39.891 85.2376 39.891C85.0989 39.891 84.9863 39.8737 84.8996 39.839C84.8129 39.7957 84.7263 39.7437 84.6396 39.683C84.5616 39.6137 84.4836 39.5573 84.4056 39.514C84.3189 39.4707 84.1889 39.4317 84.0156 39.397C83.8509 39.3623 83.7166 39.345 83.6126 39.345C82.9626 39.345 82.4513 39.5487 82.0786 39.956C81.7146 40.3547 81.5326 40.879 81.5326 41.529C81.5326 42.153 81.7189 42.673 82.0916 43.089C82.4643 43.4963 82.9409 43.7 83.5216 43.7C83.9463 43.7 84.2626 43.648 84.4706 43.544C84.5226 43.518 84.5919 43.4747 84.6786 43.414C84.7739 43.3447 84.8606 43.2927 84.9386 43.258C85.0166 43.2233 85.1119 43.206 85.2246 43.206C85.4413 43.206 85.6103 43.2753 85.7316 43.414C85.8616 43.5527 85.9266 43.7303 85.9266 43.947C85.9266 44.155 85.8053 44.35 85.5626 44.532C85.3199 44.714 84.9993 44.8613 84.6006 44.974C84.2019 45.078 83.7773 45.13 83.3266 45.13C82.6593 45.13 82.0699 44.974 81.5586 44.662C81.0559 44.35 80.6659 43.921 80.3886 43.375C80.1113 42.8203 79.9726 42.205 79.9726 41.529C79.9726 40.827 80.1156 40.203 80.4016 39.657C80.6963 39.111 81.1036 38.6863 81.6236 38.383C82.1436 38.071 82.7329 37.915 83.3916 37.915ZM90.8271 43.531C90.9484 43.531 91.0567 43.5917 91.1521 43.713C91.2561 43.8257 91.3081 43.9773 91.3081 44.168C91.3081 44.402 91.1781 44.6013 90.9181 44.766C90.6667 44.922 90.3807 45 90.0601 45C89.5227 45 89.0677 44.8873 88.6951 44.662C88.3311 44.428 88.1491 43.9383 88.1491 43.193V39.605H87.5511C87.3431 39.605 87.1697 39.5357 87.0311 39.397C86.8924 39.2583 86.8231 39.085 86.8231 38.877C86.8231 38.6777 86.8924 38.513 87.0311 38.383C87.1697 38.2443 87.3431 38.175 87.5511 38.175H88.1491V37.343C88.1491 37.1177 88.2227 36.9313 88.3701 36.784C88.5261 36.628 88.7167 36.55 88.9421 36.55C89.1587 36.55 89.3407 36.628 89.4881 36.784C89.6354 36.9313 89.7091 37.1177 89.7091 37.343V38.175H90.6321C90.8401 38.175 91.0134 38.2443 91.1521 38.383C91.2907 38.5217 91.3601 38.695 91.3601 38.903C91.3601 39.1023 91.2907 39.2713 91.1521 39.41C91.0134 39.54 90.8401 39.605 90.6321 39.605H89.7091V43.128C89.7091 43.31 89.7567 43.4443 89.8521 43.531C89.9474 43.609 90.0774 43.648 90.2421 43.648C90.3114 43.648 90.4067 43.6307 90.5281 43.596C90.6321 43.5527 90.7317 43.531 90.8271 43.531ZM93.0633 43.921C92.9853 43.817 92.9463 43.687 92.9463 43.531C92.9463 43.3057 93.059 43.115 93.2843 42.959C93.4056 42.881 93.5313 42.842 93.6613 42.842C93.8433 42.842 94.0166 42.9243 94.1813 43.089C94.4413 43.3577 94.71 43.557 94.9873 43.687C95.2733 43.817 95.6156 43.882 96.0143 43.882C96.6903 43.856 97.0283 43.6003 97.0283 43.115C97.0283 42.8637 96.9113 42.673 96.6773 42.543C96.452 42.413 96.0966 42.283 95.6113 42.153C95.1086 42.0143 94.697 41.8757 94.3763 41.737C94.0643 41.5983 93.7913 41.3903 93.5573 41.113C93.332 40.827 93.2193 40.4457 93.2193 39.969C93.2193 39.553 93.3363 39.1933 93.5703 38.89C93.813 38.578 94.125 38.3397 94.5063 38.175C94.8963 38.0017 95.308 37.915 95.7413 37.915C96.1833 37.915 96.6253 37.9973 97.0673 38.162C97.5093 38.3267 97.856 38.5693 98.1073 38.89C98.22 39.0287 98.2763 39.1847 98.2763 39.358C98.2763 39.5573 98.194 39.722 98.0293 39.852C97.908 39.9473 97.7693 39.995 97.6133 39.995C97.4226 39.995 97.2666 39.9343 97.1453 39.813C96.9893 39.6223 96.7856 39.4707 96.5343 39.358C96.2916 39.2453 96.0143 39.189 95.7023 39.189C95.0436 39.189 94.7143 39.4273 94.7143 39.904C94.7143 40.0947 94.775 40.2507 94.8963 40.372C95.0176 40.4847 95.1693 40.5757 95.3513 40.645C95.542 40.7057 95.8063 40.7837 96.1443 40.879C96.6123 41.009 97.0023 41.1433 97.3143 41.282C97.6263 41.4207 97.8906 41.633 98.1073 41.919C98.324 42.205 98.4323 42.582 98.4323 43.05C98.4323 43.4747 98.3066 43.8473 98.0553 44.168C97.804 44.48 97.479 44.7183 97.0803 44.883C96.6903 45.0477 96.2873 45.13 95.8713 45.13C95.2993 45.13 94.7663 45.0347 94.2723 44.844C93.7783 44.6533 93.3753 44.3457 93.0633 43.921ZM115.984 35.861C116.192 35.861 116.382 35.9433 116.556 36.108C116.738 36.264 116.829 36.4633 116.829 36.706C116.829 36.784 116.816 36.8707 116.79 36.966L114.229 44.506C114.177 44.6533 114.086 44.7703 113.956 44.857C113.826 44.9437 113.683 44.9913 113.527 45C113.371 45 113.223 44.9567 113.085 44.87C112.946 44.7833 112.838 44.6577 112.76 44.493L110.914 40.294L109.055 44.493C108.977 44.6577 108.868 44.7833 108.73 44.87C108.591 44.9567 108.444 45 108.288 45C108.132 44.9913 107.989 44.9437 107.859 44.857C107.729 44.7703 107.638 44.6533 107.586 44.506L105.025 36.966C104.999 36.8707 104.986 36.784 104.986 36.706C104.986 36.4633 105.072 36.264 105.246 36.108C105.428 35.9433 105.627 35.861 105.844 35.861C106.017 35.861 106.173 35.9087 106.312 36.004C106.45 36.0907 106.546 36.212 106.598 36.368L108.535 42.244L110.225 38.188C110.294 38.032 110.394 37.9107 110.524 37.824C110.654 37.7287 110.801 37.6853 110.966 37.694C111.13 37.6853 111.273 37.7287 111.395 37.824C111.525 37.9107 111.624 38.032 111.694 38.188L113.293 42.205L115.217 36.368C115.269 36.212 115.364 36.0907 115.503 36.004C115.65 35.9087 115.81 35.861 115.984 35.861ZM119.775 44.207C119.775 44.4323 119.702 44.623 119.554 44.779C119.407 44.9263 119.221 45 118.995 45C118.77 45 118.584 44.9263 118.436 44.779C118.289 44.623 118.215 44.4323 118.215 44.207V38.838C118.215 38.6127 118.289 38.4263 118.436 38.279C118.584 38.123 118.77 38.045 118.995 38.045C119.221 38.045 119.407 38.123 119.554 38.279C119.702 38.4263 119.775 38.6127 119.775 38.838V44.207ZM118.982 37.2C118.688 37.2 118.48 37.1523 118.358 37.057C118.237 36.9617 118.176 36.7927 118.176 36.55V36.303C118.176 36.0603 118.241 35.8913 118.371 35.796C118.501 35.7007 118.709 35.653 118.995 35.653C119.299 35.653 119.511 35.7007 119.632 35.796C119.754 35.8913 119.814 36.0603 119.814 36.303V36.55C119.814 36.8013 119.749 36.9747 119.619 37.07C119.498 37.1567 119.286 37.2 118.982 37.2ZM121.396 43.921C121.318 43.817 121.279 43.687 121.279 43.531C121.279 43.3057 121.391 43.115 121.617 42.959C121.738 42.881 121.864 42.842 121.994 42.842C122.176 42.842 122.349 42.9243 122.514 43.089C122.774 43.3577 123.042 43.557 123.32 43.687C123.606 43.817 123.948 43.882 124.347 43.882C125.023 43.856 125.361 43.6003 125.361 43.115C125.361 42.8637 125.244 42.673 125.01 42.543C124.784 42.413 124.429 42.283 123.944 42.153C123.441 42.0143 123.029 41.8757 122.709 41.737C122.397 41.5983 122.124 41.3903 121.89 41.113C121.664 40.827 121.552 40.4457 121.552 39.969C121.552 39.553 121.669 39.1933 121.903 38.89C122.145 38.578 122.457 38.3397 122.839 38.175C123.229 38.0017 123.64 37.915 124.074 37.915C124.516 37.915 124.958 37.9973 125.4 38.162C125.842 38.3267 126.188 38.5693 126.44 38.89C126.552 39.0287 126.609 39.1847 126.609 39.358C126.609 39.5573 126.526 39.722 126.362 39.852C126.24 39.9473 126.102 39.995 125.946 39.995C125.755 39.995 125.599 39.9343 125.478 39.813C125.322 39.6223 125.118 39.4707 124.867 39.358C124.624 39.2453 124.347 39.189 124.035 39.189C123.376 39.189 123.047 39.4273 123.047 39.904C123.047 40.0947 123.107 40.2507 123.229 40.372C123.35 40.4847 123.502 40.5757 123.684 40.645C123.874 40.7057 124.139 40.7837 124.477 40.879C124.945 41.009 125.335 41.1433 125.647 41.282C125.959 41.4207 126.223 41.633 126.44 41.919C126.656 42.205 126.765 42.582 126.765 43.05C126.765 43.4747 126.639 43.8473 126.388 44.168C126.136 44.48 125.811 44.7183 125.413 44.883C125.023 45.0477 124.62 45.13 124.204 45.13C123.632 45.13 123.099 45.0347 122.605 44.844C122.111 44.6533 121.708 44.3457 121.396 43.921ZM134.119 35.38C134.344 35.38 134.531 35.4537 134.678 35.601C134.825 35.7483 134.899 35.939 134.899 36.173V44.207C134.899 44.4323 134.825 44.623 134.678 44.779C134.531 44.9263 134.344 45 134.119 45C133.894 45 133.707 44.9263 133.56 44.779C133.421 44.6317 133.348 44.4453 133.339 44.22C133.122 44.4713 132.828 44.688 132.455 44.87C132.091 45.0433 131.705 45.13 131.298 45.13C130.7 45.13 130.158 44.9783 129.673 44.675C129.188 44.363 128.802 43.934 128.516 43.388C128.239 42.842 128.1 42.2223 128.1 41.529C128.1 40.8357 128.239 40.216 128.516 39.67C128.793 39.1153 129.17 38.6863 129.647 38.383C130.132 38.071 130.665 37.915 131.246 37.915C131.662 37.915 132.052 37.993 132.416 38.149C132.78 38.2963 133.088 38.487 133.339 38.721V36.173C133.339 35.9477 133.413 35.7613 133.56 35.614C133.707 35.458 133.894 35.38 134.119 35.38ZM131.493 43.7C132.056 43.7 132.516 43.4963 132.871 43.089C133.226 42.673 133.404 42.153 133.404 41.529C133.404 40.905 133.226 40.385 132.871 39.969C132.516 39.553 132.056 39.345 131.493 39.345C130.938 39.345 130.483 39.553 130.128 39.969C129.773 40.385 129.595 40.905 129.595 41.529C129.595 42.153 129.768 42.673 130.115 43.089C130.47 43.4963 130.93 43.7 131.493 43.7ZM143.692 41.529C143.692 42.2223 143.536 42.8463 143.224 43.401C142.912 43.947 142.483 44.3717 141.937 44.675C141.399 44.9783 140.806 45.13 140.156 45.13C139.497 45.13 138.899 44.9783 138.362 44.675C137.824 44.3717 137.4 43.947 137.088 43.401C136.776 42.8463 136.62 42.2223 136.62 41.529C136.62 40.8357 136.776 40.216 137.088 39.67C137.4 39.1153 137.824 38.6863 138.362 38.383C138.899 38.071 139.497 37.915 140.156 37.915C140.806 37.915 141.399 38.071 141.937 38.383C142.483 38.6863 142.912 39.1153 143.224 39.67C143.536 40.216 143.692 40.8357 143.692 41.529ZM142.132 41.529C142.132 41.1043 142.041 40.7273 141.859 40.398C141.685 40.06 141.447 39.8 141.144 39.618C140.849 39.436 140.52 39.345 140.156 39.345C139.792 39.345 139.458 39.436 139.155 39.618C138.86 39.8 138.622 40.06 138.44 40.398C138.266 40.7273 138.18 41.1043 138.18 41.529C138.18 41.9537 138.266 42.3307 138.44 42.66C138.622 42.9893 138.86 43.245 139.155 43.427C139.458 43.609 139.792 43.7 140.156 43.7C140.52 43.7 140.849 43.609 141.144 43.427C141.447 43.245 141.685 42.9893 141.859 42.66C142.041 42.3307 142.132 41.9537 142.132 41.529ZM153.436 37.915C154.294 37.915 154.888 38.1793 155.217 38.708C155.546 39.228 155.711 39.9517 155.711 40.879V44.207C155.711 44.4323 155.637 44.623 155.49 44.779C155.343 44.9263 155.156 45 154.931 45C154.706 45 154.519 44.9263 154.372 44.779C154.225 44.623 154.151 44.4323 154.151 44.207V40.879C154.151 40.4023 154.056 40.0297 153.865 39.761C153.683 39.4837 153.358 39.345 152.89 39.345C152.405 39.345 152.023 39.4923 151.746 39.787C151.477 40.073 151.343 40.437 151.343 40.879V44.207C151.343 44.4323 151.269 44.623 151.122 44.779C150.975 44.9263 150.788 45 150.563 45C150.338 45 150.151 44.9263 150.004 44.779C149.857 44.623 149.783 44.4323 149.783 44.207V40.879C149.783 40.4023 149.688 40.0297 149.497 39.761C149.315 39.4837 148.99 39.345 148.522 39.345C148.037 39.345 147.655 39.4923 147.378 39.787C147.109 40.073 146.975 40.437 146.975 40.879V44.207C146.975 44.4323 146.901 44.623 146.754 44.779C146.607 44.9263 146.42 45 146.195 45C145.97 45 145.783 44.9263 145.636 44.779C145.489 44.623 145.415 44.4323 145.415 44.207V38.838C145.415 38.6127 145.489 38.4263 145.636 38.279C145.783 38.123 145.97 38.045 146.195 38.045C146.42 38.045 146.607 38.123 146.754 38.279C146.901 38.4263 146.975 38.6127 146.975 38.838V39.046C147.209 38.734 147.504 38.4697 147.859 38.253C148.223 38.0277 148.626 37.915 149.068 37.915C150.16 37.915 150.858 38.3917 151.161 39.345C151.36 38.981 151.659 38.6517 152.058 38.357C152.465 38.0623 152.925 37.915 153.436 37.915ZM157.416 43.921C157.338 43.817 157.299 43.687 157.299 43.531C157.299 43.3057 157.412 43.115 157.637 42.959C157.759 42.881 157.884 42.842 158.014 42.842C158.196 42.842 158.37 42.9243 158.534 43.089C158.794 43.3577 159.063 43.557 159.34 43.687C159.626 43.817 159.969 43.882 160.367 43.882C161.043 43.856 161.381 43.6003 161.381 43.115C161.381 42.8637 161.264 42.673 161.03 42.543C160.805 42.413 160.45 42.283 159.964 42.153C159.462 42.0143 159.05 41.8757 158.729 41.737C158.417 41.5983 158.144 41.3903 157.91 41.113C157.685 40.827 157.572 40.4457 157.572 39.969C157.572 39.553 157.689 39.1933 157.923 38.89C158.166 38.578 158.478 38.3397 158.859 38.175C159.249 38.0017 159.661 37.915 160.094 37.915C160.536 37.915 160.978 37.9973 161.42 38.162C161.862 38.3267 162.209 38.5693 162.46 38.89C162.573 39.0287 162.629 39.1847 162.629 39.358C162.629 39.5573 162.547 39.722 162.382 39.852C162.261 39.9473 162.122 39.995 161.966 39.995C161.776 39.995 161.62 39.9343 161.498 39.813C161.342 39.6223 161.139 39.4707 160.887 39.358C160.645 39.2453 160.367 39.189 160.055 39.189C159.397 39.189 159.067 39.4273 159.067 39.904C159.067 40.0947 159.128 40.2507 159.249 40.372C159.371 40.4847 159.522 40.5757 159.704 40.645C159.895 40.7057 160.159 40.7837 160.497 40.879C160.965 41.009 161.355 41.1433 161.667 41.282C161.979 41.4207 162.244 41.633 162.46 41.919C162.677 42.205 162.785 42.582 162.785 43.05C162.785 43.4747 162.66 43.8473 162.408 44.168C162.157 44.48 161.832 44.7183 161.433 44.883C161.043 45.0477 160.64 45.13 160.224 45.13C159.652 45.13 159.119 45.0347 158.625 44.844C158.131 44.6533 157.728 44.3457 157.416 43.921Z" fill="white"/>
</svg>
